# Blender 3.6.0 Alpha
# www.blender.org
mtllib lake.mtl
o Shape_IndexedFaceSet
v 396886.875000 3555057.000000 36.463203
v 396887.531250 3555068.750000 36.463196
v 396891.500000 3555045.250000 36.463203
v 396894.250000 3555077.750000 36.463196
v 396897.593750 3555038.000000 36.463203
v 396898.812500 3555081.500000 36.463196
v 396914.625000 3555031.500000 36.463203
v 396908.468750 3555083.500000 36.463196
v 396922.375000 3555083.500000 36.463196
v 396926.750000 3555026.750000 36.463203
v 396936.281250 3555080.000000 36.463196
v 396947.468750 3555022.750000 36.463203
v 396943.125000 3555079.500000 36.463196
v 396952.156250 3555073.500000 36.463196
v 396958.375000 3555021.750000 36.463203
v 396958.656250 3555068.000000 36.463203
v 396967.937500 3555021.500000 36.463203
v 396962.093750 3555061.000000 36.463203
v 396964.531250 3555053.000000 36.463203
v 396972.500000 3555042.750000 36.463203
v 396972.937500 3555022.500000 36.463203
v 396975.437500 3555028.750000 36.463203
v 396974.000000 3555024.750000 36.463203
v 396973.781250 3555023.250000 36.463203
v 396974.000000 3555024.750000 46.463203
v 396975.437500 3555028.750000 46.463203
v 396972.937500 3555022.500000 46.463203
v 396973.781250 3555023.250000 46.463203
v 396967.937500 3555021.500000 46.463203
v 396958.375000 3555021.750000 46.463203
v 396947.468750 3555022.750000 46.463203
v 396926.750000 3555026.750000 46.463203
v 396914.625000 3555031.500000 46.463203
v 396897.593750 3555038.000000 46.463203
v 396891.500000 3555045.250000 46.463203
v 396886.875000 3555057.000000 46.463203
v 396887.531250 3555068.750000 46.463196
v 396894.250000 3555077.750000 46.463196
v 396898.812500 3555081.500000 46.463196
v 396908.468750 3555083.500000 46.463196
v 396922.375000 3555083.500000 46.463196
v 396936.281250 3555080.000000 46.463196
v 396943.125000 3555079.500000 46.463196
v 396952.156250 3555073.500000 46.463196
v 396958.656250 3555068.000000 46.463203
v 396962.093750 3555061.000000 46.463203
v 396964.531250 3555053.000000 46.463203
v 396972.500000 3555042.750000 46.463203
vn -0.0000 -0.0000 -1.0000
vn -0.0000 -0.0000 1.0000
vn 0.9903 -0.1390 -0.0000
vn -0.9903 0.1390 -0.0000
vn -0.6480 0.7616 -0.0000
vn -0.2307 0.9730 -0.0000
vn 0.0277 0.9996 -0.0000
vn 0.0278 0.9996 -0.0000
vn 0.0883 0.9961 -0.0000
vn 0.1994 0.9799 -0.0000
vn 0.3576 0.9339 -0.0000
vn 0.3533 0.9355 -0.0000
vn 0.7747 0.6323 -0.0000
vn 0.9298 0.3682 -0.0000
vn 0.9298 0.3680 -0.0000
vn 0.9297 0.3682 -0.0000
vn 0.9984 -0.0563 -0.0000
vn 0.8013 -0.5983 -0.0000
vn 0.8012 -0.5983 -0.0000
vn 0.8011 -0.5985 -0.0000
vn 0.8012 -0.5984 -0.0000
vn 0.6519 -0.7583 -0.0000
vn 0.2075 -0.9782 -0.0000
vn -0.0040 -1.0000 -0.0000
vn -0.2535 -0.9673 -0.0000
vn -0.0739 -0.9973 -0.0000
vn -0.5402 -0.8415 -0.0000
vn -0.6538 -0.7567 -0.0000
vn -0.8984 -0.4392 -0.0000
vn -0.9571 -0.2898 -0.0000
vn -0.9571 -0.2897 -0.0000
vn -0.9570 -0.2899 -0.0000
vn -0.7857 -0.6186 -0.0000
vn -0.7858 -0.6185 -0.0000
vn -0.9788 -0.2049 -0.0000
vn -0.9789 -0.2044 -0.0000
vn -0.9789 -0.2041 -0.0000
vn -0.9789 -0.2045 -0.0000
vn -0.9395 0.3425 -0.0000
vt 0.000000 0.426500
vt 0.007400 0.240600
vt 0.052400 0.614700
vt 0.083400 0.095800
vt 0.121000 0.734500
vt 0.134700 0.032900
vt 0.313300 0.837800
vt 0.243800 0.000000
vt 0.400700 0.000900
vt 0.450100 0.912400
vt 0.557800 0.059500
vt 0.684200 0.980200
vt 0.635100 0.067700
vt 0.737200 0.161000
vt 0.807200 0.995700
vt 0.810500 0.251200
vt 0.915500 1.000000
vt 0.849400 0.364400
vt 0.876800 0.493200
vt 0.967000 0.656300
vt 0.971900 0.981000
vt 1.000000 0.881000
vt 0.983800 0.944200
vt 0.981300 0.969500
vt 0.983800 0.944200
vt 1.000000 0.881000
vt 0.971900 0.981000
vt 0.981300 0.969500
vt 0.915500 1.000000
vt 0.807200 0.995700
vt 0.684200 0.980200
vt 0.450100 0.912400
vt 0.313300 0.837800
vt 0.121000 0.734500
vt 0.052400 0.614700
vt 0.000000 0.426500
vt 0.007400 0.240600
vt 0.083400 0.095800
vt 0.134700 0.032900
vt 0.243800 0.000000
vt 0.400700 0.000900
vt 0.557800 0.059500
vt 0.635100 0.067700
vt 0.737200 0.161000
vt 0.810500 0.251200
vt 0.849400 0.364400
vt 0.876800 0.493200
vt 0.967000 0.656300
s 1
usemtl Shape
f 1/1/1 2/2/1 3/3/1
f 4/4/1 3/3/1 2/2/1
f 5/5/1 3/3/1 4/4/1
f 6/6/1 5/5/1 4/4/1
f 7/7/1 5/5/1 6/6/1
f 8/8/1 7/7/1 6/6/1
f 9/9/1 7/7/1 8/8/1
f 10/10/1 7/7/1 9/9/1
f 11/11/1 10/10/1 9/9/1
f 12/12/1 10/10/1 11/11/1
f 13/13/1 12/12/1 11/11/1
f 14/14/1 12/12/1 13/13/1
f 15/15/1 12/12/1 14/14/1
f 16/16/1 15/15/1 14/14/1
f 17/17/1 15/15/1 16/16/1
f 18/18/1 17/17/1 16/16/1
f 19/19/1 17/17/1 18/18/1
f 20/20/1 17/17/1 19/19/1
f 21/21/1 17/17/1 20/20/1
f 22/22/1 21/21/1 20/20/1
f 23/23/1 21/21/1 22/22/1
f 24/24/1 21/21/1 23/23/1
f 25/25/2 26/26/2 27/27/2
f 28/28/2 25/25/2 27/27/2
f 28/28/3 23/23/3 25/25/3
f 24/24/4 28/28/4 23/23/4
f 27/27/5 28/28/5 24/24/5
f 21/21/5 27/27/5 24/24/5
f 29/29/6 27/27/6 21/21/6
f 17/17/6 29/29/6 21/21/6
f 30/30/7 29/29/7 17/17/8
f 15/15/7 30/30/7 17/17/8
f 31/31/9 30/30/9 15/15/9
f 12/12/9 31/31/9 15/15/9
f 32/32/10 31/31/10 12/12/10
f 10/10/10 32/32/10 12/12/10
f 33/33/11 32/32/11 10/10/11
f 7/7/12 33/33/11 10/10/11
f 34/34/12 33/33/11 7/7/12
f 5/5/12 34/34/12 7/7/12
f 35/35/13 34/34/13 5/5/13
f 3/3/13 35/35/13 5/5/13
f 36/36/14 35/35/15 3/3/16
f 1/1/15 36/36/14 3/3/16
f 37/37/17 36/36/17 1/1/17
f 2/2/17 37/37/17 1/1/17
f 38/38/18 37/37/19 2/2/20
f 4/4/21 38/38/18 2/2/20
f 39/39/22 38/38/22 4/4/22
f 6/6/22 39/39/22 4/4/22
f 40/40/23 39/39/23 6/6/23
f 8/8/23 40/40/23 6/6/23
f 41/41/24 40/40/24 8/8/24
f 9/9/24 41/41/24 8/8/24
f 42/42/25 41/41/25 9/9/25
f 11/11/25 42/42/25 9/9/25
f 43/43/26 42/42/26 11/11/26
f 13/13/26 43/43/26 11/11/26
f 44/44/27 43/43/27 13/13/27
f 14/14/27 44/44/27 13/13/27
f 45/45/28 44/44/28 14/14/28
f 16/16/28 45/45/28 14/14/28
f 46/46/29 45/45/29 16/16/29
f 18/18/29 46/46/29 16/16/29
f 47/47/30 46/46/31 18/18/32
f 19/19/31 47/47/30 18/18/32
f 48/48/33 47/47/33 19/19/34
f 20/20/34 48/48/33 19/19/34
f 26/26/35 48/48/36 20/20/37
f 22/22/38 26/26/35 20/20/37
f 25/25/39 26/26/39 22/22/39
f 23/23/39 25/25/39 22/22/39
usemtl material
f 36/36/2 35/35/2 37/37/2
f 38/38/2 37/37/2 35/35/2
f 34/34/2 38/38/2 35/35/2
f 39/39/2 38/38/2 34/34/2
f 33/33/2 39/39/2 34/34/2
f 40/40/2 39/39/2 33/33/2
f 41/41/2 40/40/2 33/33/2
f 32/32/2 41/41/2 33/33/2
f 42/42/2 41/41/2 32/32/2
f 31/31/2 42/42/2 32/32/2
f 43/43/2 42/42/2 31/31/2
f 44/44/2 43/43/2 31/31/2
f 30/30/2 44/44/2 31/31/2
f 45/45/2 44/44/2 30/30/2
f 29/29/2 45/45/2 30/30/2
f 46/46/2 45/45/2 29/29/2
f 47/47/2 46/46/2 29/29/2
f 48/48/2 47/47/2 29/29/2
f 27/27/2 48/48/2 29/29/2
f 26/26/2 48/48/2 27/27/2
